# xmcd
#
# Track frame offsets: 
#        183
#        54483
#        73008
#        100983
#        127758
#        138583
#        160983
#        206733
#
# Disc length: 3657 seconds
#
# Revision: 6
# Processed by: cddbd v1.5.2PL0 Copyright (c) Steve Scherf et al.
# Submitted via: ExactAudioCopyFreeDBPlugin 1.0
#
DISCID=720e4708
DTITLE=Albioni - Grieg - Mozart - Smetana - Ravel - Galeria Sampler
DYEAR=1976
DGENRE=Classical
TTITLE0=Bedrich Smetana - Má Vlast - Mein Vaterland - Vltava - Die Mol
TTITLE0=dau
TTITLE1=Edvard Grieg - Peer Gynt Suite No. 1 op. 46 - Morgenstimmung
TTITLE2=Wolfgang Amadeus Mozart - Eine kleine Nachtmusik - KV 525 - Al
TTITLE2=legro
TTITLE3=Wolfgang Amadeus Mozart - Eine kleine Nachtmusik - KV 525 - Ro
TTITLE3=mance, Andante
TTITLE4=Wolfgang Amadeus Mozart - Eine kleine Nachtmusik - KV 525 - Me
TTITLE4=nuetto, Allegretto
TTITLE5=Wolfgang Amadeus Mozart - Eine kleine Nachtmusik - KV 525 - Ro
TTITLE5=ndo, Allegro
TTITLE6=Tomaso Albinoni - Adagio
TTITLE7=Maurice Ravel - Bolero
EXTD=
EXTT0=
EXTT1=
EXTT2=
EXTT3=
EXTT4=
EXTT5=
EXTT6=
EXTT7=
PLAYORDER=
